<svg width="400" height="400" viewBox="0 0 400 400" fill="none" xmlns="http://www.w3.org/2000/svg">
<path d="M200 230C201.147 230 202.274 229.704 203.273 229.14L281.607 185.007C283.028 184.205 284.107 182.911 284.638 181.367C285.168 179.824 285.115 178.14 284.487 176.633C282.198 171.23 278.185 166.736 273.073 163.853L213.033 130.04C209.047 127.802 204.552 126.627 199.98 126.627C195.408 126.627 190.913 127.802 186.927 130.04L126.927 163.847C121.808 166.738 117.793 171.247 115.513 176.667C114.885 178.173 114.832 179.857 115.362 181.401C115.893 182.944 116.972 184.239 118.393 185.04L196.727 229.173C197.729 229.725 198.856 230.01 200 230ZM126.927 176.633L160 198C162.001 196.887 194.437 218 196.727 218C199.017 218 251.999 192.887 254 194L273.073 177.033C273.845 177.477 268.028 176.431 268.707 177.007L200 215.7L131.333 177.033C131.996 176.451 132.713 175.933 133.473 175.487L126.927 176.633Z" fill="black"/>
<path d="M111.607 213.393C110.793 212.934 109.892 212.651 108.962 212.562C108.032 212.474 107.094 212.582 106.208 212.879C105.322 213.176 104.509 213.656 103.821 214.288C103.133 214.92 102.585 215.69 102.213 216.547C100.759 219.864 100.006 223.445 100 227.067V306.267C100.006 310.992 101.268 315.632 103.657 319.709C106.045 323.787 109.474 327.157 113.593 329.473L173.593 363.273C177.588 365.508 182.09 366.676 186.667 366.667C188.435 366.667 190.13 365.964 191.381 364.714C192.631 363.464 193.333 361.768 193.333 360V263.333C193.333 262.152 193.019 260.991 192.423 259.971C191.826 258.95 190.97 258.107 189.94 257.527L111.607 213.393ZM180 351.58L120.14 317.86C118.082 316.701 116.369 315.018 115.173 312.981C113.977 310.945 113.343 308.628 113.333 306.267H106.208L128 329.473L158 344L180 351.58Z" fill="black"/>
<path d="M213.333 366.667C217.91 366.679 222.413 365.51 226.407 363.273L286.407 329.473C290.526 327.157 293.955 323.787 296.343 319.709C298.732 315.632 299.994 310.992 300 306.267V227.067C299.994 223.445 299.241 219.864 297.787 216.547C297.415 215.69 296.867 214.92 296.179 214.288C295.491 213.656 294.678 213.176 293.792 212.879C292.906 212.582 291.968 212.474 291.038 212.562C290.108 212.651 289.207 212.934 288.393 213.393L210.06 257.527C209.03 258.107 208.174 258.95 207.577 259.971C206.981 260.991 206.667 262.152 206.667 263.333V360C206.667 361.768 207.369 363.464 208.619 364.714C209.87 365.964 211.565 366.667 213.333 366.667ZM220 332.427H254L291.038 312.981L286.667 306.267C286.657 308.628 286.023 310.945 284.827 312.981C283.631 315.018 281.918 316.701 279.86 317.86L250 324L220 332.427Z" fill="black"/>
<path d="M193.251 33.3334V90.5734L184.631 81.9534C183.374 80.739 181.69 80.067 179.942 80.0822C178.194 80.0974 176.522 80.7985 175.286 82.0346C174.05 83.2706 173.349 84.9427 173.334 86.6907C173.318 88.4387 173.99 90.1227 175.205 91.38L195.205 111.38C195.826 112.002 196.565 112.494 197.378 112.827C199.009 113.501 200.841 113.501 202.471 112.827C203.285 112.494 204.024 112.002 204.645 111.38L224.645 91.38C225.859 90.1227 226.531 88.4387 226.516 86.6907C226.501 84.9427 225.8 83.2706 224.564 82.0346C223.327 80.7985 221.655 80.0974 219.907 80.0822C218.159 80.067 216.475 80.739 215.218 81.9534L206.585 90.5734V33.3334C206.585 31.5652 205.882 29.8696 204.632 28.6193C203.382 27.3691 201.686 26.6667 199.918 26.6667C198.15 26.6667 196.454 27.3691 195.204 28.6193C193.954 29.8696 193.251 31.5652 193.251 33.3334Z" fill="black"/>
<path d="M6.66667 280H63.9067L55.2867 288.62C54.6499 289.235 54.142 289.971 53.7927 290.784C53.4433 291.597 53.2594 292.472 53.2517 293.357C53.244 294.243 53.4127 295.12 53.7479 295.94C54.0831 296.759 54.5781 297.503 55.204 298.129C55.83 298.755 56.5743 299.25 57.3936 299.586C58.2129 299.921 59.0908 300.089 59.976 300.082C60.8612 300.074 61.736 299.89 62.5494 299.541C63.3627 299.191 64.0984 298.683 64.7133 298.047L84.7133 278.047C85.3355 277.426 85.8273 276.687 86.16 275.873C86.8341 274.243 86.8341 272.411 86.16 270.78C85.8273 269.966 85.3355 269.228 84.7133 268.607L64.7133 248.607C63.456 247.392 61.772 246.72 60.024 246.736C58.276 246.751 56.6039 247.452 55.3679 248.688C54.1318 249.924 53.4307 251.596 53.4155 253.344C53.4003 255.092 54.0723 256.776 55.2867 258.033L63.9067 266.667H6.66667C4.89856 266.667 3.20286 267.369 1.95262 268.619C0.702379 269.87 0 271.565 0 273.333C0 275.101 0.702379 276.797 1.95262 278.047C3.20286 279.298 4.89856 280 6.66667 280Z" fill="black"/>
<path d="M393.333 266.667H336.093L344.713 258.047C345.928 256.789 346.6 255.105 346.584 253.357C346.569 251.609 345.868 249.937 344.632 248.701C343.396 247.465 341.724 246.764 339.976 246.749C338.228 246.734 336.544 247.406 335.287 248.62L315.287 268.62C314.664 269.241 314.173 269.98 313.84 270.793C313.166 272.424 313.166 274.256 313.84 275.887C314.173 276.7 314.664 277.439 315.287 278.06L335.287 298.06C336.544 299.274 338.228 299.946 339.976 299.931C341.724 299.916 343.396 299.215 344.632 297.979C345.868 296.743 346.569 295.071 346.584 293.323C346.6 291.575 345.928 289.891 344.713 288.633L336.093 280H393.333C395.101 280 396.797 279.298 398.047 278.047C399.298 276.797 400 275.101 400 273.333C400 271.565 399.298 269.87 398.047 268.619C396.797 267.369 395.101 266.667 393.333 266.667Z" fill="black"/>
</svg>
