<svg width="400" height="400" viewBox="0 0 400 400" fill="none" xmlns="http://www.w3.org/2000/svg">
<path d="M199.196 220.667C200.391 220.666 201.565 220.358 202.606 219.771L284.203 173.799C285.683 172.964 286.807 171.615 287.36 170.008C287.913 168.4 287.857 166.645 287.203 165.077C284.818 159.448 280.638 154.767 275.314 151.764L212.772 116.542C208.619 114.211 203.937 112.986 199.175 112.986C194.413 112.986 189.73 114.211 185.578 116.542L123.078 151.757C117.745 154.769 113.563 159.466 111.189 165.111C110.534 166.68 110.478 168.435 111.031 170.043C111.584 171.65 112.708 172.999 114.189 173.833L195.786 219.806C196.83 220.38 198.004 220.677 199.196 220.667ZM123.078 165.077L157.529 187.333C159.613 186.174 193.401 208.167 195.786 208.167C198.171 208.167 253.361 182.007 255.446 183.167L275.314 165.493C276.118 165.955 270.058 164.865 270.765 165.465L199.196 205.771L127.668 165.493C128.358 164.887 129.105 164.348 129.897 163.882L123.078 165.077Z" fill="black"/>
<path d="M107.119 203.369C106.272 202.891 105.333 202.597 104.364 202.504C103.395 202.412 102.418 202.524 101.495 202.834C100.573 203.144 99.7259 203.644 99.0088 204.302C98.2921 204.96 97.7217 205.762 97.3342 206.654C95.8196 210.109 95.0346 213.84 95.0288 217.613V300.113C95.0355 305.035 96.3501 309.868 98.838 314.115C101.326 318.363 104.898 321.873 109.188 324.286L171.688 359.494C175.849 361.822 180.539 363.039 185.307 363.029C187.148 363.029 188.915 362.298 190.217 360.995C191.519 359.693 192.251 357.927 192.251 356.085V255.39C192.251 254.159 191.923 252.951 191.302 251.888C190.681 250.825 189.789 249.946 188.716 249.342L107.119 203.369ZM178.362 347.314L116.008 312.189C113.865 310.982 112.08 309.228 110.834 307.107C109.589 304.986 108.928 302.572 108.918 300.113H101.495L124.195 324.286L155.445 339.418L178.362 347.314Z" fill="black"/>
<path d="M213.083 363.029C217.851 363.042 222.542 361.824 226.702 359.494L289.202 324.286C293.492 321.873 297.064 318.363 299.552 314.115C302.04 309.868 303.355 305.035 303.361 300.113V217.613C303.355 213.84 302.57 210.109 301.056 206.654C300.668 205.762 300.098 204.96 299.381 204.302C298.664 203.644 297.817 203.144 296.895 202.834C295.972 202.524 294.995 202.412 294.026 202.504C293.057 202.597 292.118 202.891 291.271 203.369L209.674 249.342C208.601 249.946 207.709 250.825 207.088 251.888C206.467 252.951 206.139 254.159 206.139 255.39V356.085C206.139 357.927 206.871 359.693 208.173 360.995C209.475 362.298 211.242 363.029 213.083 363.029ZM220.028 327.363H255.445L294.026 307.107L289.473 300.113C289.463 302.572 288.801 304.986 287.556 307.107C286.31 309.228 284.525 310.982 282.382 312.189L251.278 318.585L220.028 327.363Z" fill="black"/>
<path d="M195.164 57.9732L190.866 77.3179L181.887 68.3387C180.577 67.0737 178.823 66.3741 177.002 66.3896C175.181 66.4054 173.439 67.1358 172.152 68.4233C170.864 69.7112 170.134 71.4529 170.118 73.2737C170.102 75.0946 170.802 76.8487 172.067 78.1583L192.9 98.9916C193.547 99.6396 194.317 100.152 195.164 100.499C196.863 101.201 198.771 101.201 200.47 100.499C201.317 100.152 202.087 99.6396 202.734 98.9916L223.567 78.1583C224.832 76.8487 225.532 75.0946 225.516 73.2737C225.5 71.4529 224.77 69.7112 223.483 68.4233C222.195 67.1358 220.453 66.4054 218.633 66.3896C216.812 66.3741 215.058 67.0737 213.748 68.3387L204.755 77.3179L197.151 62.0058C197.151 60.164 201.472 74.5703 200.47 73.268C199.468 71.9656 198.993 58.0058 197.151 58.0058C195.31 58.0058 193.916 71.9656 192.914 73.268C191.912 74.5703 195.164 56.1314 195.164 57.9732Z" fill="black"/>
<path d="M198.151 45L198.151 84" stroke="black" stroke-width="14.141" stroke-linecap="round"/>
<path d="M41.9732 268.838L61.3179 273.137L52.3387 282.116C51.0737 283.426 50.3741 285.18 50.3896 287.001C50.4054 288.822 51.1358 290.563 52.4233 291.851C53.7112 293.138 55.4529 293.869 57.2737 293.885C59.0946 293.9 60.8487 293.2 62.1583 291.935L82.9916 271.102C83.6396 270.455 84.1521 269.686 84.4987 268.838C85.2008 267.14 85.2008 265.232 84.4987 263.532C84.1521 262.685 83.6396 261.915 82.9916 261.269L62.1583 240.435C60.8487 239.17 59.0946 238.47 57.2737 238.486C55.4529 238.502 53.7112 239.232 52.4233 240.52C51.1358 241.807 50.4054 243.549 50.3896 245.37C50.3741 247.191 51.0737 248.945 52.3387 250.255L61.3179 259.248L46.0058 266.851C44.164 266.851 58.5703 262.53 57.268 263.532C55.9656 264.534 42.0058 265.009 42.0058 266.851C42.0058 268.693 55.9656 270.087 57.268 271.089C58.5703 272.091 40.1314 268.838 41.9732 268.838Z" fill="black"/>
<path d="M29 265.852L68 265.852" stroke="black" stroke-width="14.141" stroke-linecap="round"/>
<path d="M358.416 262.863L339.072 258.565L348.051 249.585C349.316 248.275 350.016 246.521 350 244.7C349.984 242.88 349.254 241.138 347.966 239.85C346.678 238.563 344.937 237.833 343.116 237.817C341.295 237.801 339.541 238.501 338.231 239.766L317.398 260.599C316.75 261.246 316.238 262.015 315.891 262.863C315.189 264.562 315.189 266.47 315.891 268.169C316.238 269.016 316.75 269.786 317.398 270.433L338.231 291.266C339.541 292.531 341.295 293.231 343.116 293.215C344.937 293.199 346.678 292.469 347.966 291.181C349.254 289.894 349.984 288.152 350 286.331C350.016 284.51 349.316 282.756 348.051 281.446L339.072 272.453L354.384 264.85C356.226 264.85 341.819 269.171 343.122 268.169C344.424 267.167 358.384 266.692 358.384 264.85C358.384 263.008 344.424 261.615 343.122 260.612C341.819 259.611 360.258 262.863 358.416 262.863Z" fill="black"/>
<path d="M371.39 265.85L332.39 265.85" stroke="black" stroke-width="14.141" stroke-linecap="round"/>
</svg>
